<?xml version="1.0" encoding="utf-8"?>
<!-- Generator: Adobe Illustrator 28.2.0, SVG Export Plug-In . SVG Version: 6.00 Build 0)  -->
<svg version="1.1" id="Layer_1" xmlns="http://www.w3.org/2000/svg" xmlns:xlink="http://www.w3.org/1999/xlink" x="0px" y="0px"
	 viewBox="0 0 800.2 177.1" style="enable-background:new 0 0 800.2 177.1;" xml:space="preserve">
<style type="text/css">
	.st0{enable-background:new    ;}
	.st1{stroke:#000000;stroke-width:3;stroke-miterlimit:10;}
</style>
<g class="st0">
	<path class="st1" d="M147.4,42.5c-0.3,0.1-28.8,8.2-57.3,17.8c-10.3,3.5-18.8,6.5-25.8,9.2c-4.2,7.5-8.6,15.4-13.1,23.3
		c-0.9,1.6-1.8,3.2-2.7,4.8c7.3,5.6,39.6,31.5,53.2,60.3c0.4,0.9,0.2,2.1-0.5,2.7c-0.2,0.2-0.5,0.3-0.8,0.3c-0.5,0-1-0.3-1.3-0.9
		c-13.2-28-45.8-54-52.4-59.1c-9.4,16.5-17,29.9-22.8,39.8C13,159.4,10.8,162.8,9.5,162.8c-0.3,0-0.5-0.2-0.8-0.4
		c-1.4-1.1-0.6-3.1-0.1-4.3c2.2-5.5,6.3-12.9,10.7-20.6c8.6-15.4,19.3-34.6,17-43c-0.5-1.8-1.7-3.1-3.6-3.8c-2.6-1-3.9-2.5-3.8-4.6
		c0.1-2.4,0.2-7,33.6-19.8c8.9-15.8,17.7-31.6,25.4-45.6c0.5-0.9,1.4-1.1,2.1-0.5s0.9,1.8,0.4,2.7c-0.1,0.3-10.3,18.5-23.2,41.6
		c6.1-2.2,13.1-4.7,21.2-7.5c28.8-9.7,58-18,58.3-18.1c0.8-0.2,1.7,0.4,1.8,1.5C148.8,41.3,148.3,42.3,147.4,42.5z M59.5,71.4
		C35.8,80.7,32.4,84.8,32,86c0.2,0.2,0.6,0.5,1.6,0.9c2.9,1.1,4.8,3.2,5.6,6.2c1.6,5.8-1,14.3-5.3,23.7
		C41.7,103.1,50.6,87.3,59.5,71.4z"/>
	<path class="st1" d="M202.9,91.9c0,1.1-0.7,1.9-1.5,1.9l0,0c-5.9-0.1-12.3-0.1-19-0.2c-20.8,31.4-41.7,60.7-41.9,61l0,0
		c-0.1,0.2-0.3,0.3-0.4,0.4l0,0c-0.2,0.1-0.3,0.1-0.5,0.2c0,0,0,0-0.1,0c0,0,0,0-0.1,0s-0.3,0-0.4-0.1h-0.1
		c-0.2-0.1-0.3-0.2-0.5-0.3l0,0l0,0l0,0c-0.1-0.2-0.3-0.4-0.3-0.6c0,0,0,0,0-0.1c-0.1-0.2-0.1-0.4-0.1-0.7c0,0,0,0,0-0.1
		c0-0.2,0-0.5,0.1-0.7c0,0,0,0,0-0.1c0.1-0.2,0.1-0.4,0.3-0.6c0.1-0.1,6.3-9.6,3.2-20.9c-1.9-7.2-8-16.4-24.5-24.5
		c-29.8,29.8-54.3,55.4-54.8,56c-0.3,0.3-0.6,0.5-1,0.5s-0.9-0.2-1.2-0.7c-0.5-0.8-0.5-2,0.2-2.7c2.2-2.3,25.2-26.5,53.4-54.6
		c-5.7-2.5-12.4-4.9-20.5-7.1c-1.7-0.4-3.9-1.1-3.7-3.4c0.2-2.2,0.4-4,39.5-4.6c34.4-33.8,72-68.7,88.4-76.8
		c1.4-0.7,5.5-2.7,7.3,0.5c1.4,2.6,4.8,8.8-39.4,76.1c9.8,0.1,16.3,0.2,16.5,0.2C202.2,89.9,202.9,90.8,202.9,91.9z M124.6,93.9
		c-11.9,0.2-21.8,0.6-27.6,1.2c7.2,2.1,13.6,4.5,19.2,7.1C118.9,99.4,121.7,96.7,124.6,93.9z M178.3,93.6
		c-16.2-0.1-33.6-0.1-48.6,0.2c-3.4,3.4-6.8,6.7-10.2,10.1c13.6,7,21.8,15.8,24.6,26.1c1.2,4.6,1.2,8.9,0.7,12.5
		C152.4,131.7,165.3,113.2,178.3,93.6z M182.6,87.1c41.7-63.4,39.5-70.6,39.1-71.2c0,0-0.7-0.5-3.7,0.9c-15.4,7.5-51,40.4-84.3,73.1
		c3.8,0,7.9-0.1,12.4-0.1c12.4-0.1,24.8,0,34.7,0C181.5,88.9,182,88,182.6,87.1z"/>
	<path class="st1" d="M273.9,92.1c-13.9,31.9-33.5,52.6-55.2,58.4c-15,4-30.1,0.4-41.6-10c-9,12.2-14.9,15.2-18.6,15.2
		c-2,0-3.3-0.9-4.1-1.7c-3.7-3.7-3.6-12.3,0.2-18.5c3.9-6.3,11.6-9.5,22.1-0.2c1.1-1.6,2.3-3.4,3.6-5.4
		C218.5,70,255.4,20.5,255.7,20c0.6-0.8,1.6-0.8,2.2-0.1c0.6,0.7,0.6,2,0.1,2.7c-0.4,0.5-37.1,49.9-75.3,109.7
		c-1.2,1.9-2.4,3.6-3.5,5.2c10.8,9.5,24.8,12.8,38.9,9.1c20.9-5.6,39.7-25.6,53.2-56.5c0.4-0.9,1.3-1.3,2.1-0.8
		C274,89.9,274.3,91.1,273.9,92.1z M174.6,138.2c-3.7-3.2-7.2-4.8-10.2-4.8c-2.9,0-5.4,1.5-7.3,4.5c-2.7,4.3-3,10.8-0.8,13.1
		C158.8,153.5,164.9,151.2,174.6,138.2z"/>
	<path class="st1" d="M380.4,91.9c0,1.1-0.7,1.9-1.5,1.9l0,0c-5.9-0.1-12.3-0.1-19-0.2c-20.8,31.4-41.7,60.7-41.9,61l0,0
		c-0.1,0.2-0.3,0.3-0.4,0.4l0,0c-0.2,0.1-0.3,0.1-0.5,0.2c0,0,0,0-0.1,0c0,0,0,0-0.1,0s-0.3,0-0.4-0.1h-0.1
		c-0.2-0.1-0.3-0.2-0.5-0.3l0,0l0,0l0,0c-0.1-0.2-0.3-0.4-0.3-0.6c0,0,0,0,0-0.1c-0.1-0.2-0.1-0.4-0.1-0.7c0,0,0,0,0-0.1
		c0-0.2,0-0.5,0.1-0.7c0,0,0,0,0-0.1c0.1-0.2,0.1-0.4,0.3-0.6c0.1-0.1,6.3-9.6,3.2-20.9c-1.9-7.2-8-16.4-24.5-24.5
		c-29.8,29.8-54.3,55.4-54.8,56c-0.3,0.3-0.6,0.5-1,0.5s-0.9-0.2-1.2-0.7c-0.5-0.8-0.5-2,0.2-2.7c2.2-2.3,25.2-26.5,53.4-54.6
		c-5.7-2.5-12.4-4.9-20.5-7.1c-1.7-0.4-3.9-1.1-3.7-3.4c0.2-2.2,0.4-4,39.5-4.6c34.4-33.8,72-68.7,88.4-76.8
		c1.4-0.7,5.5-2.7,7.3,0.5c1.4,2.6,4.8,8.8-39.4,76.1c9.8,0.1,16.3,0.2,16.5,0.2C379.8,89.9,380.4,90.8,380.4,91.9z M302.1,93.9
		c-11.9,0.2-21.8,0.6-27.6,1.2c7.2,2.1,13.6,4.5,19.2,7.1C296.5,99.4,299.3,96.7,302.1,93.9z M355.9,93.6
		c-16.2-0.1-33.6-0.1-48.6,0.2c-3.4,3.4-6.8,6.7-10.2,10.1c13.6,7,21.8,15.8,24.6,26.1c1.2,4.6,1.2,8.9,0.7,12.5
		C330,131.7,342.9,113.2,355.9,93.6z M360.2,87.1c41.7-63.4,39.5-70.6,39.1-71.2c0,0-0.7-0.5-3.7,0.9c-15.4,7.5-51,40.4-84.3,73.1
		c3.8,0,7.9-0.1,12.4-0.1c12.4-0.1,24.8,0,34.7,0C359,88.9,359.6,88,360.2,87.1z"/>
	<path class="st1" d="M498.3,91.3c0,0-21.9,25.7-46.4,54.5c-4.5,5.3-7.4,7.7-9.5,7.7c-0.7,0-1.3-0.3-1.8-0.8
		c-1.3-1.4-4.2-4.3,9.9-38.7c8.3-20.3,20.5-46.6,34.3-74.2c6.3-12.5,7.8-17.3,8.1-19.1c-6.3,3-33.3,36.9-51.5,59.8
		c-10.6,13.3-20.6,25.9-26.8,33c-9,10.2-11.5,11.2-13.1,9.5c-3-3.1,1.6-13.6,26.4-65.7c3.5-7.3,7.2-15.1,11.2-23.5
		c4.1-8.6,5-12.1,5.2-13.4c-2.5,0.9-12.8,9.1-54.1,62c-24.4,31.2-47.7,62.9-48,63.2c-0.6,0.8-1.6,0.8-2.2,0.1s-0.7-2-0.1-2.7
		c0.2-0.3,24.7-33.4,49.6-65.3c51.4-65.7,54.8-62.5,56.8-60.6c1.8,1.7,1.7,5.4-4.6,18.7c-4,8.3-7.7,16.2-11.2,23.5
		c-13.6,28.5-25.4,53.3-26.7,60c1.2-0.8,3.6-3,8.7-8.7c6.1-7,16.1-19.5,26.7-32.8c41.9-52.7,52.4-64,55.9-60.5
		c1.7,1.7,2.2,4.7-7.8,24.6c-13.4,26.7-25.3,52.4-33.5,72.3c-11.5,27.9-11.5,34.2-11.3,35.4c0.6-0.1,2.4-1,7.2-6.6
		c24.5-28.8,46.4-54.5,46.4-54.5c0.6-0.7,1.6-0.7,2.2,0.1C498.9,89.4,498.9,90.6,498.3,91.3z"/>
	<path class="st1" d="M568.3,91.5c-0.7,1-15.9,20.4-36.7,28.1c-13.8,20-30.1,36.1-46.4,40.2c-2.8,0.7-5.3,1.1-7.4,1.1
		c-4.6,0-7.5-1.7-8.9-5.1c-1.4-3.3-5.3-12.9,25.7-58.2c0-11.3,4.1-25.2,11.6-38.8c10-18.3,24.2-33,40-41.4
		c7.6-4.1,13.3-4.2,16.8-0.3c4.2,4.6,4.9,14.3,2,28.1c-4.1,19.8-15.2,46.1-29.6,68.7c17.7-8.5,30.5-24.9,30.7-25.1
		c0.6-0.8,1.6-0.8,2.2,0C568.9,89.5,568.9,90.7,568.3,91.5z M526.5,121.3c-1.9,0.5-3.8,0.9-5.7,1.1c-18.6,2.5-23.9-9.4-25.4-16.8
		c-0.2-0.8-0.3-1.7-0.4-2.5c-15.5,23-26.4,43.5-23.3,51c1.6,4,7.9,3.3,12.9,2C499.2,152.4,513.8,138.7,526.5,121.3z M562,44.2
		c2.5-12.1,2.2-20.7-1-24.2s-9.2-1.4-13.6,0.9c-27.3,14.6-47,47.9-49.4,71.9c0.7-1,1.5-2.1,2.2-3.1c18-25.3,37.2-48.4,37.4-48.6
		c0.6-0.7,1.6-0.7,2.2,0.1c0.6,0.8,0.6,2-0.1,2.7c-13.3,15.9-28.9,36.1-42,55.1c0.1,2,0.3,3.9,0.6,5.6c2.2,10.7,9.8,15.5,22.1,13.9
		c3.3-0.4,6.5-1.3,9.6-2.4C545.6,93.2,557.7,65,562,44.2z"/>
	<path class="st1" d="M677.8,92.7c-0.3,0.3-28.6,33.7-52.8,58.2c-2.3,2.3-5,4.7-7.1,4.7c-0.7,0-1.4-0.2-1.9-0.8
		c-5-5.2,6.1-34.8,34.7-103.7c1.7-4,3.3-8,4.9-11.9c-17.1,31.5-48.4,86.8-74.2,105c-10.9,7.7-17.5,9.2-20.6,4.7
		c-1.4-2-5.7-8.2,9.5-42.4c8.1-18.2,20.1-40.7,33.1-61.9c7.2-11.7,7.5-15,7.5-15.8C607,27.4,583,47,562.7,66.3
		c-0.7,0.6-1.6,0.5-2.2-0.4c-0.5-0.9-0.4-2.1,0.3-2.7c0.1-0.1,11.6-11,23.5-20.9c25-21,27.5-17.9,28.8-16.2c1.6,2,1.8,6-7.3,20.9
		c-28.8,47.1-48,91.7-42.7,99.4c0.9,1.3,4.2,3.3,16.7-5.5c28-19.8,63.2-85.4,78.3-113.4c2-3.7,3.6-6.7,4.7-8.7
		c1.8-3.2,2.6-4.6,4-3.5c1.4,1,0.7,2.7-0.4,5.7c-0.8,2-2,5.1-3.9,9.8c-2.9,7-6,14.5-9.2,22.2c-8.8,21.2-18.8,45.2-25.8,64.2
		c-10.5,28.2-10.2,33.6-9.7,34.7c0.3,0,1.6-0.2,5.2-3.8c24.2-24.4,52.4-57.7,52.7-58c0.6-0.7,1.6-0.7,2.2,0.1
		C678.5,90.7,678.5,91.9,677.8,92.7z"/>
	<path class="st1" d="M782.2,85c0.3,1,0,2.1-0.8,2.6c-0.8,0.4-1.7,0-2-1c-1.6-4.6-1-13.3-0.3-23.3c0.6-8.8,1.2-17.9,0.2-23.8
		c0,0,0,0,0-0.1c-3.9,1-19.1,25.6-30.2,43.7c-23.2,37.7-37.8,60.2-44.2,56.6c-2.8-1.6-3.4-7-1.8-17.4c3.1-20.9,8.7-42.6,13.1-60.1
		c3.5-13.6,7.4-28.9,6.6-32c-2,0.4-8.8,7.9-29.3,39.6c-55.2,85.5-82.4,87.9-85.3,87.9c-0.1,0-0.2,0-0.2,0c-0.8-0.1-1.5-1-1.5-2
		c0-1.1,0.8-1.9,1.6-1.8c0.4,0,27.2,0,83-86.5c26.3-40.7,30.5-42.5,33.2-40.7c3.4,2.3,1.3,11.2-5.2,36.7c-4.4,17.4-10,39-13,59.6
		c-1.8,11.9,0,13.1,0.1,13.1c0.5,0.3,3.4,0.8,15-15.7c7.7-10.8,16.7-25.6,25.5-39.8c20.4-33.1,29.2-46.4,33.5-45.2
		c0.6,0.2,1.8,0.8,2.1,3.1c1.1,6.5,0.5,15.9-0.2,24.9C781.5,72.3,780.9,81.2,782.2,85z"/>
</g>
</svg>
